PathFileType	4	(X/Y/Z)	pose_F01_0-83.trc
DataRate	CameraRate	NumFrames	NumMarkers	Units	OrigDataRate	OrigDataStartFrame	OrigNumFrames
30	30	9	21	m	30	59	83
Frame#	Time	CHip			RHip			RKnee			RAnkle			RBigToe			RSmallToe			RHeel			LHip			LKnee			LAnkle			LBigToe			LSmallToe			LHeel			Neck			Nose			RShoulder			RElbow			RWrist			LShoulder			LElbow			LWrist			
		X1	Y1	Z1	X2	Y2	Z2	X3	Y3	Z3	X4	Y4	Z4	X5	Y5	Z5	X6	Y6	Z6	X7	Y7	Z7	X8	Y8	Z8	X9	Y9	Z9	X10	Y10	Z10	X11	Y11	Z11	X12	Y12	Z12	X13	Y13	Z13	X14	Y14	Z14	X15	Y15	Z15	X16	Y16	Z16	X17	Y17	Z17	X18	Y18	Z18	X19	Y19	Z19	X20	Y20	Z20	X21	Y21	Z21	
59	1.9666666666666666	-0.2670215551380051	1.874675308601707	-0.46820222703086894	-0.2798254449467297	1.8730302034812714	-0.39991980051927817	-0.2884007685523096	1.7129334195219394	-0.4359641937044758													-0.2507986939800911	1.8786087329213608	-0.5300363995727478	-0.23843918983410772	1.7427220159742787	-0.50453785377963	-0.23380989033994876	1.6068111357714778	-0.5157818323576518	-0.25031409714528163	1.5668111389513177	-0.5573211407792096	-0.2305422339068374	1.5663983482226207	-0.5516398372850474	-0.23127605594508535	1.583858544954603	-0.5076967085998365	-0.26190936681690813	2.044164657066841	-0.4584220662964168	-0.2695939678189085	2.10944449620518	-0.499127260133892	-0.27961962714224115	2.0383940313357325	-0.376714068250224	-0.3247515680437855	2.03919792760273	-0.3359620119078102	-0.318822490577313	2.0980362010326656	-0.38001319016063145	-0.23892713223188713	2.0485261170464266	-0.5385188818271067	-0.2218761734685845	2.0254950781687975	-0.6791879417899156	-0.22423613780349283	2.0841278797096026	-0.6708347491352403
60	2.0	-0.26605024953746975	1.8795200797868425	-0.46531609932082085	-0.27785055172510525	1.8737911007262378	-0.3936033520351729	-0.2884007685523096	1.7129334195219394	-0.4359641937044758													-0.2500716629359707	1.88164140103504	-0.5271931892478217	-0.23768580455202754	1.7391243358858095	-0.49940816507515845	-0.23380989033994876	1.6068111357714778	-0.5157818323576518	-0.25031409714528163	1.5668111389513177	-0.5573211407792096	-0.23032398973445212	1.5652648345889155	-0.551581026842513	-0.23127605594508535	1.583858544954603	-0.5076967085998365	-0.25998989446060505	2.046308967518632	-0.4531251793945681	-0.2683946167420807	2.1112745038911593	-0.488180830097558	-0.28046405590814133	2.041954137669589	-0.3726036496793619	-0.32955839051593916	2.0387344408955785	-0.3351153444524302	-0.3294961611011745	2.1049395339980954	-0.3686934731369231	-0.23808244362551656	2.0505188007169735	-0.5364814765582149	-0.21471292140583775	2.029510292412832	-0.6839284887391918	-0.2203236431820454	2.098258929326687	-0.6898098269494383
61	2.033333333333333	-0.2640601769163175	1.8833344688354758	-0.4593581822827972	-0.27834973606480723	1.8779829398484333	-0.38882086848358105	-0.2884007685523096	1.7129334195219394	-0.4359641937044758													-0.251946235551165	1.8866913124095135	-0.525723205622399	-0.23693241926994732	1.7355266557973403	-0.49427847637068684	-0.23380989033994876	1.6068111357714778	-0.5157818323576518	-0.25031409714528163	1.5668111389513177	-0.5573211407792096	-0.2303685260681519	1.5656207690294908	-0.5516713691793745	-0.23127605594508535	1.583858544954603	-0.5076967085998365	-0.25895533548907973	2.049910938596439	-0.4509562456741755	-0.2680858322891253	2.1221964761278227	-0.4825276997411275	-0.2783242188079566	2.045696041552589	-0.36786611622607684	-0.3243776450901634	2.038987508837693	-0.3282062776432179	-0.32109228773483584	2.1037335987341854	-0.34720735200200914	-0.23718165100415498	2.052680364561337	-0.5338800496006	-0.21467534995390355	2.0389258609724084	-0.6857940274778468	-0.21452335827330202	2.10051075998568	-0.6605049138756234
62	2.066666666666667	-0.2620732157161658	1.8838005191030351	-0.45307015887020846	-0.27850046050997507	1.8808707810577785	-0.38914055537472764	-0.2884007685523096	1.7129334195219394	-0.4359641937044758													-0.2510166509912839	1.8885065778443362	-0.5227233515233614	-0.2358961627853972	1.7354162927316978	-0.4911828856840449	-0.23380989033994876	1.6068111357714778	-0.5157818323576518	-0.25031409714528163	1.5668111389513177	-0.5573211407792096	-0.23018924891795867	1.5650013572865435	-0.5515442235156481	-0.23127605594508535	1.583858544954603	-0.5076967085998365	-0.25575347319058456	2.050807224569038	-0.4413530709370115	-0.26770762925506103	2.1256716204423602	-0.4746120293096099	-0.27094669146709977	2.046536903345842	-0.35391068208647947	-0.3168620162425515	2.0395874964269662	-0.335044592140951	-0.3191563415619808	2.0916707921250404	-0.3701006111506715	-0.23699907054022396	2.05594818921421	-0.5256194128189957	-0.21784375556995433	2.043256047054916	-0.6783465610837848	-0.2264569880892686	2.106582146077178	-0.6832911086843518
63	2.1	-0.2608613981009204	1.8847076465581978	-0.4500454808177109	-0.27557658111176786	1.8809297654746067	-0.3879969179109762	-0.2884007685523096	1.7129334195219394	-0.4359641937044758													-0.25001738333803253	1.888917324216946	-0.5194487302111588	-0.23400299574559263	1.7358789796467766	-0.49324940359421726	-0.23380989033994876	1.6068111357714778	-0.5157818323576518	-0.25031409714528163	1.5668111389513177	-0.5573211407792096	-0.2282577699083236	1.5655390288725604	-0.5537664597699701	-0.23127605594508535	1.583858544954603	-0.5076967085998365	-0.2555872691452361	2.047943377339316	-0.43236224256281663	-0.2677822644633805	2.123213682997201	-0.474023839164144	-0.2687852896675088	2.0448327028062554	-0.34738932865493066	-0.3061459152942243	2.032558158348411	-0.318010743237768	-0.32921969746174823	2.070995974677565	-0.3901959797790414	-0.2400142535121842	2.0535611622401015	-0.5177263221075505	-0.2163737126893842	2.038339365315103	-0.6531848693419492	-0.49611630861151157	2.042515862715002	-0.4084433359499585
64	2.1333333333333333	-0.25985093656631786	1.881669749783638	-0.44643876079039935	-0.2742448723050619	1.8781346484019024	-0.38410232219845364	-0.2884007685523096	1.7129334195219394	-0.4359641937044758													-0.2460440366914593	1.8879884893131937	-0.5065467628539602	-0.23370853334591274	1.73756726622917	-0.49220025714239923	-0.23380989033994876	1.6068111357714778	-0.5157818323576518	-0.25031409714528163	1.5668111389513177	-0.5573211407792096	-0.2306011411343847	1.564288358635935	-0.5509123557220449	-0.23127605594508535	1.583858544954603	-0.5076967085998365	-0.25533535521239603	2.0499194267089376	-0.42434079947449155	-0.2679104933484167	2.1206857147267884	-0.4735060407128628	-0.27060060081504644	2.0437277934295337	-0.34460808574929136	-0.3041880741725858	2.0274426331194646	-0.3254297409279778	-0.32442156301470926	2.0326886918665936	-0.37073320192783066	-0.2371401949074098	2.0530991006895953	-0.5082880358850288	-0.218255693346975	2.0352176614564277	-0.6489903913267112	-0.7657756291337546	1.9784495793528263	-0.1335955632155652
65	2.1666666666666665	-0.2576019556100036	1.8844728665055837	-0.4487152534769067	-0.27112547494122535	1.87957751074604	-0.3831112842730023	-0.2884007685523096	1.7129334195219394	-0.4359641937044758													-0.2446475139851168	1.889065979300974	-0.5033639874278969	-0.23341407094623282	1.7392555528115634	-0.49115111069058115	-0.23380989033994876	1.6068111357714778	-0.5157818323576518	-0.25031409714528163	1.5668111389513177	-0.5573211407792096	-0.23064816878625582	1.564297355281748	-0.5508756141092876	-0.23127605594508535	1.583858544954603	-0.5076967085998365	-0.25739540334675476	2.0475160681870133	-0.42156783283258403	-0.2680433704369592	2.119857590409803	-0.4745693171367952	-0.2772414206431296	2.042834621518265	-0.34168131365775645	-0.3094048192738092	2.01824049116679	-0.3372630584844667	-0.3196234285676703	1.994381409055623	-0.3512704240766199	-0.23717709158424036	2.0549991061852664	-0.5001207193854442	-0.21284324998005627	2.026774447056334	-0.6194494549487533	-1.0354349496559976	1.9143832959906506	0.1412522095188281
66	2.2	-0.25763129530871676	1.8838793465325587	-0.4484577230675526	-0.27197357907161474	1.8783109303786345	-0.3775657683575777	-0.2884007685523096	1.7129334195219394	-0.4359641937044758													-0.24263423870722892	1.8898756294606458	-0.5055916679183434	-0.23311960854655292	1.7409438393939567	-0.4901019642387631	-0.23380989033994876	1.6068111357714778	-0.5157818323576518	-0.25031409714528163	1.5668111389513177	-0.5573211407792096	-0.2305967026096577	1.5667546486306414	-0.5515428973132209	-0.23127605594508535	1.583858544954603	-0.5076967085998365	-0.2614089301964494	2.0477479814982398	-0.42576754656396437	-0.26908103027355146	2.1227272644563087	-0.47897021820106384	-0.2821754018887659	2.0417924595720125	-0.3406387503101944	-0.3199355959274638	1.961598172066672	-0.32971621773018944	-0.3148252941206313	1.956074126244652	-0.33180764622540915	-0.2371820840586347	2.055090416405066	-0.5002341607662998	-0.21285711627821396	2.0110177759075896	-0.6163762528390102	-1.3050942701782406	1.8503170126284747	0.41609998225322153
67	2.2333333333333334	-0.2565816542178313	1.8880570043631666	-0.4459250496392945	-0.2702345858212279	1.8836134473723996	-0.38068776973379465	-0.2884007685523096	1.7129334195219394	-0.4359641937044758													-0.24156273018562316	1.8925359896447906	-0.502686079322982	-0.23113777680064032	1.7444086864435884	-0.4837623741427693	-0.23380989033994876	1.6068111357714778	-0.5157818323576518	-0.25031409714528163	1.5668111389513177	-0.5573211407792096	-0.22849885250442709	1.5639516164790395	-0.5530905984877429	-0.23127605594508535	1.583858544954603	-0.5076967085998365	-0.26544486012537016	2.0479923951671	-0.4300885782300275	-0.2750741206879339	2.1243481025513877	-0.4962923102804482	-0.2869883062048663	2.041641212097497	-0.33981607504584244	-0.30491818061020515	1.9612155652611187	-0.33268712143746887	-0.31002715967359235	1.917766843433681	-0.31234486837419845	-0.24303844158373156	2.055957555496739	-0.5188155583832984	-0.22103143582284623	1.9953605565056085	-0.5937810524008361	-1.3324226930030878	1.8347858381685513	0.4899390354679212
